<svg width="81" height="80" fill="none" xmlns="http://www.w3.org/2000/svg"><path d="M80.5 40c0 22.091-17.909 40-40 40S.5 62.091.5 40s17.909-40 40-40 40 17.909 40 40z" fill="#E8F7DA"/><path fill-rule="evenodd" clip-rule="evenodd" d="M41.124 37.755l-.032 1.963v.018l-2-.07 2 .07-.029.81a2468.283 2468.283 0 0 0-.247 7.647l-3.998-.118a1552.17 1552.17 0 0 1 .248-7.666l.027-.794.032-1.927 4 .067z" fill="#2C8F00"/><path d="M33.45 32.205c4.076.976 5.675 5.517 5.675 5.517l-.032 1.945s-5.668.505-8.558-1.42c-2.663-1.777-3.836-6.76-3.21-6.76.802 0 3.729.144 6.125.718z" fill="#ACEB7C"/><path fill-rule="evenodd" clip-rule="evenodd" d="M25.575 30.418a2.113 2.113 0 0 1 1.75-.931c.893 0 3.989.15 6.591.773 2.682.642 4.462 2.433 5.52 3.897a13.222 13.222 0 0 1 1.463 2.61c.033.08.058.145.077.194l.023.061.007.021.003.008.001.003c0 .001.001.003-1.885.667l1.886-.664.12.339-.068 4.103-1.793.16-.177-1.992.177 1.992h-.01l-.018.002-.061.005c-.051.004-.122.01-.212.015a26.405 26.405 0 0 1-3.2-.006c-1.831-.118-4.431-.49-6.343-1.765-1.854-1.236-3.003-3.401-3.603-5.01-.313-.839-.531-1.669-.619-2.352a4.126 4.126 0 0 1-.005-1.163c.032-.198.114-.582.376-.967zm11.363 7.303a21.295 21.295 0 0 1-.912-.038c-1.725-.111-3.404-.45-4.381-1.101-.785-.523-1.532-1.68-2.028-2.959 1.048.1 2.278.266 3.368.527 1.394.334 2.45 1.3 3.21 2.351.323.447.57.878.743 1.22z" fill="#359900"/><path d="M50.011 32.712c4.098-3.042 4.985-8.619 4.394-8.619-.592 0-7.298-.585-10.266 1.395s-5.014 4.562-5.014 8.914c0 0 7.114 1.11 10.886-1.69z" fill="#ACEB7C"/><path fill-rule="evenodd" clip-rule="evenodd" d="M47.326 26.391c-.937.199-1.634.465-2.077.76-1.332.889-2.342 1.837-3.026 2.95a7.19 7.19 0 0 0-.941 2.49c.534.026 1.15.038 1.807.017 2.159-.07 4.356-.482 5.73-1.502 1.647-1.223 2.702-3.006 3.273-4.542.072-.192.134-.375.187-.549-.58-.01-1.257-.006-2.02.03-.998.048-2.018.152-2.933.346zm-8.201 8.01l-.309 1.977-1.691-.264v-1.712c0-2.51.596-4.613 1.69-6.393 1.08-1.76 2.578-3.094 4.214-4.185 1.04-.695 2.295-1.098 3.468-1.346 1.196-.254 2.446-.374 3.57-.428a37.81 37.81 0 0 1 2.965-.016 54.384 54.384 0 0 1 1.285.055c.07.004.094.004.094.004h-.006c.981 0 1.566.632 1.807 1.034.22.364.29.72.319.908.063.41.041.84 0 1.2-.085.761-.314 1.714-.69 2.724-.749 2.013-2.187 4.54-4.638 6.359-2.398 1.78-5.644 2.212-7.985 2.288a27.185 27.185 0 0 1-4.025-.177 16.341 16.341 0 0 1-.266-.035l-.075-.011-.023-.003-.008-.002h-.002c-.001 0-.003 0 .306-1.976z" fill="#46A314"/><path d="M29.298 51.413c-2.76 1.603-2.635 4.502-2.635 4.502h24.5s-.018-2.895-2.579-4.541c-2.56-1.647-5.29.155-5.564.078-.275-.078-.643-2.965-4.203-3.318-3.307.053-3.947 3.19-4.115 3.28-.169.089-2.643-1.603-5.404 0z" fill="#D9C2B5"/><path fill-rule="evenodd" clip-rule="evenodd" d="M38.9 46.132l.114.012c2.401.238 3.875 1.383 4.747 2.566.075.102.145.203.21.302.167-.049.345-.096.532-.138 1.34-.304 3.272-.399 5.163.817 1.753 1.128 2.628 2.685 3.056 3.91a8.22 8.22 0 0 1 .38 1.557 6.904 6.904 0 0 1 .06.653l.001.054v.035s0 .002-2 .015-2 .014-2 .015v.01l.001.008a.04.04 0 0 0 0 .005l-.002-.032a4.23 4.23 0 0 0-.216-1c-.221-.633-.636-1.346-1.443-1.865-.67-.43-1.383-.447-2.116-.281a6.821 6.821 0 0 0-1.113.368c-.114.046-.253.102-.356.14a3.236 3.236 0 0 1-.354.108c-.002 0-.004 0-.007.002-.076.019-.541.136-1.081-.017-.69-.194-1.045-.682-1.12-.785l-.004-.005a2.71 2.71 0 0 1-.237-.394c-.052-.105-.12-.26-.163-.357l-.03-.066a3.623 3.623 0 0 0-.382-.687c-.262-.355-.727-.81-1.802-.945-.825.044-1.251.413-1.549.814-.174.236-.304.49-.408.726-.039.087-.06.14-.085.2l-.064.154c-.021.05-.067.156-.125.266-.028.054-.086.16-.173.279-.057.077-.281.385-.696.604a2.04 2.04 0 0 1-1.07.234 2.18 2.18 0 0 1-.416-.065 2.96 2.96 0 0 1-.342-.111l-.274-.112-.113-.047c-.248-.1-.54-.207-.871-.278-.642-.138-1.411-.145-2.25.342-.873.507-1.268 1.19-1.462 1.764a3.462 3.462 0 0 0-.177.928v.024-.008l-.001-.01V55.83s0-.002-1.999.085c-1.998.087-1.998.086-1.998.085v-.016l-.001-.022a5.129 5.129 0 0 1 .034-.735 7.47 7.47 0 0 1 .353-1.604 7.157 7.157 0 0 1 3.243-3.94c1.922-1.115 3.77-1.078 5.098-.793.107.023.211.048.312.074.083-.13.173-.262.272-.395.878-1.185 2.401-2.396 4.809-2.435l.115-.002zm3.636 3.396l.007-.002-.007.002z" fill="#66452E"/></svg>