<svg width="146" height="146" fill="none" xmlns="http://www.w3.org/2000/svg"><mask id="a" maskUnits="userSpaceOnUse" x="12" y="92" width="121" height="54"><path fill-rule="evenodd" clip-rule="evenodd" d="M131.728 113.186c.824.642.994 1.817.38 2.662C118.84 134.119 97.308 146 73 146c-25.11 0-47.258-12.677-60.394-31.98a1.932 1.932 0 0 1 .462-2.649c16.288-11.904 36.384-18.934 58.127-18.934 22.825 0 43.836 7.748 60.533 20.749z" fill="#51B816"/></mask><g mask="url(#a)"><path d="M31.196 99.184l42.572 22.107-43.058 27.3-42.572-22.106 43.058-27.3z" fill="#75C738"/><path d="M116.826 93.98l42.572 22.107-43.058 27.3-42.572-22.106 43.058-27.3z" fill="#93D65E"/><path d="M73.784 121.29l42.572 22.107-43.057 27.3-42.573-22.106 43.058-27.301z" fill="#46A314"/><path d="M74.25 71.884l42.573 22.107-43.058 27.3-42.572-22.107 43.058-27.3z" fill="#CCF0AD"/></g><path fill-rule="evenodd" clip-rule="evenodd" d="M95.349 69.8a28.57 28.57 0 0 0 6.036-17.608c0-15.846-12.846-28.692-28.693-28.692C56.846 23.5 44 36.346 44 52.192c0 6.644 2.258 12.76 6.049 17.624h-.002l.047.058c.176.224.355.446.537.665 10.973 13.62 15.355 21.246 19.325 40.023a2.554 2.554 0 0 0 2.492 2.032c1.266 0 2.335-.94 2.526-2.192 2.844-18.6 8.094-25.684 19.632-39.688.159-.187.315-.376.469-.568l.286-.347h-.012z" fill="#E86B13"/><path fill-rule="evenodd" clip-rule="evenodd" d="M95.349 69.8a28.57 28.57 0 0 0 6.036-17.608c0-15.846-12.846-28.692-28.693-28.692C56.846 23.5 44 36.346 44 52.192c0 6.644 2.258 12.76 6.049 17.624h-.002l.047.058c.176.224.355.446.537.665 10.973 13.62 15.355 21.246 19.325 40.023a2.554 2.554 0 0 0 2.492 2.032c1.266 0 2.335-.94 2.526-2.192 2.844-18.6 8.094-25.684 19.632-39.688.159-.187.315-.376.469-.568l.286-.347h-.012z" fill="url(#paint0_radial)"/><circle cx="73" cy="52.175" r="16" fill="#FAEFE6"/><defs><radialGradient id="paint0_radial" cx="0" cy="0" r="1" gradientUnits="userSpaceOnUse" gradientTransform="matrix(121.75006 125.58455 -80.88724 78.4175 -8.912 -6.109)"><stop stop-color="#fff" stop-opacity=".25"/><stop offset="1" stop-color="#fff" stop-opacity="0"/></radialGradient></defs></svg>