<svg width="81" height="80" fill="none" xmlns="http://www.w3.org/2000/svg"><path d="M80.5 40c0 22.091-17.909 40-40 40S.5 62.091.5 40s17.909-40 40-40 40 17.909 40 40z" fill="#F5EBE6"/><path d="M60.785 26.919c-.576-2.218-1.952-3.802-4.089-4.71a9.517 9.517 0 0 0-3.45-.738 3.924 3.924 0 0 0-1.39.148c-1.608.46-3.248 1.925-4.875 4.353a27.139 27.139 0 0 0-2.184 3.965c-1.444 2.514-4.198 5.211-4.225 5.237-.966.936-1.44 1.964-1.406 3.057.055 1.831 1.533 3.095 1.546 3.105 1.714 1.632 3.835 2.124 5.768 2.124 1.476 0 2.843-.287 3.834-.572a15.126 15.126 0 0 0 2.285-.844c2.363-1.188 4.265-2.716 5.652-4.543a13.266 13.266 0 0 0 2.336-4.928c.758-3.126.204-5.63.198-5.654z" fill="#D9C2B5"/><path d="M60.785 26.919c-.576-2.218-1.952-3.802-4.089-4.71a9.518 9.518 0 0 0-3.45-.738 3.926 3.926 0 0 0-1.39.148c-1.608.46-3.248 1.925-4.875 4.353a27.134 27.134 0 0 0-2.184 3.965c-1.444 2.514-4.198 5.211-4.225 5.237-.966.936-1.44 1.964-1.406 3.057.055 1.831 1.533 3.095 1.546 3.105 1.714 1.632 3.835 2.124 5.768 2.124 1.476 0 2.843-.287 3.834-.572a15.126 15.126 0 0 0 2.285-.844c2.363-1.188 4.265-2.716 5.652-4.543a13.266 13.266 0 0 0 2.336-4.928c.758-3.126.204-5.63.198-5.654zm-8.457 10.79a.644.644 0 0 0-.28.41.644.644 0 0 0 .094.488c.022.033.532.798 1.618 1.271-.57.374-1.14.702-1.741 1.005-.09.042-.903.426-2.063.758-2.468.708-5.924 1.064-8.372-1.265-.045-.04-1.089-.985-1.12-2.191-.02-.71.32-1.41 1.011-2.079.119-.114 2.912-2.834 4.467-5.557l.032-.063a27.58 27.58 0 0 1 1.88-3.479c1.036-1.616 2.634-3.646 4.359-4.14a2.716 2.716 0 0 1 .953-.1l.07.002c.05-.004 5.111-.07 6.29 4.46 0 .005.111.51.155 1.328h-.005c-.456 0-.774-.417-.788-.435a.651.651 0 0 0-1.165.277.643.643 0 0 0 .113.483c.327.455.998.978 1.83.978h.017c-.125 2.52-1.028 6.12-4.598 9.052-1.267-.177-1.838-.988-1.861-1.022a.651.651 0 0 0-.896-.182z" fill="#66452E" stroke="#66452E" stroke-width="2"/><path d="M46.178 36.502c-.57-.02-.8-.656-.809-.683a.646.646 0 0 0-.806-.407.636.636 0 0 0-.373.318.636.636 0 0 0-.04.489c.182.561.805 1.523 1.984 1.563a.596.596 0 0 0 .199-.024.639.639 0 0 0 .291-1.053.637.637 0 0 0-.447-.203zm6.265-2.538c-.568-.02-.798-.657-.807-.683a.645.645 0 0 0-.807-.408.637.637 0 0 0-.413.807c.182.562.805 1.523 1.984 1.564a.608.608 0 0 0 .198-.025.639.639 0 0 0-.155-1.255zm1.142-7.256a.637.637 0 0 0-.62-.662c-.554-.019-.782-.614-.806-.681a.64.64 0 0 0-.807-.409.638.638 0 0 0-.413.807c.182.561.805 1.523 1.983 1.564a.613.613 0 0 0 .199-.025.639.639 0 0 0 .464-.594z" fill="#7A563D" stroke="#7A563D"/><path d="M25.114 38.847a7.46 7.46 0 0 0 2.474.436c.104 0 .18-.003.222-.005.356.01.715-.049 1.07-.171 2.9-.998 4.899-6.133 5.116-6.712 1.015-2.002 3.03-4.194 3.05-4.216.71-.762 1.034-1.576.964-2.42-.117-1.42-1.311-2.332-1.321-2.34-2.454-2.103-5.742-1.41-7.484-.81a11.71 11.71 0 0 0-1.73.745c-4.03 2.297-5.372 5.423-5.788 7.64-.459 2.445.07 4.358.075 4.379.535 1.69 1.663 2.86 3.352 3.474z" fill="#D9C2B5"/><path d="M25.114 38.847a7.46 7.46 0 0 0 2.474.436c.104 0 .18-.003.222-.005.356.01.715-.049 1.07-.171 2.9-.998 4.899-6.133 5.116-6.712 1.015-2.002 3.03-4.194 3.05-4.216.71-.762 1.034-1.576.964-2.42-.117-1.42-1.311-2.332-1.321-2.34-2.454-2.103-5.742-1.41-7.484-.81a11.71 11.71 0 0 0-1.73.745c-4.03 2.297-5.372 5.423-5.788 7.64-.459 2.445.07 4.358.075 4.379.535 1.69 1.663 2.86 3.352 3.474zm-1.935-4.48a.506.506 0 0 0 .79-.634c-.273-.34-.819-.72-1.466-.683-.005-1.95.547-4.762 3.182-7.168.988.086 1.454.687 1.474.712a.509.509 0 0 0 .906-.227.504.504 0 0 0-.093-.376c-.017-.024-.439-.592-1.295-.915.42-.308.845-.584 1.297-.84a10.71 10.71 0 0 1 1.561-.67c1.877-.646 4.53-1.06 6.514.638.036.029.879.716.952 1.643.043.547-.19 1.1-.696 1.643-.087.093-2.135 2.308-3.226 4.475l-.022.05c-.02.053-1.983 5.265-4.507 6.134a2.024 2.024 0 0 1-.731.116l-.054.001c-.01.001-.994.07-2.123-.3-1.016-.333-2.346-1.105-2.91-2.888a6.867 6.867 0 0 1-.174-1.013c.347-.016.61.29.621.302z" fill="#66452E" stroke="#66452E" stroke-width="2"/><path d="M32.663 27.381c.449-.008.644.486.646.491a.503.503 0 0 0 .922.02.493.493 0 0 0 .01-.38c-.162-.422-.672-1.128-1.566-1.128h-.03a.498.498 0 0 0 .018.997zm-4.748 2.215h.01c.441-.006.638.47.646.49a.497.497 0 0 0 .466.316.496.496 0 0 0 .467-.675c-.164-.427-.686-1.147-1.598-1.128a.498.498 0 0 0 .009.997zm-.073 6.138c.447-.009.643.485.645.49a.5.5 0 0 0 .933-.36c-.163-.426-.683-1.146-1.597-1.127a.498.498 0 0 0 .018.997z" fill="#7A563D" stroke="#7A563D"/><path d="M40.756 48.318c-5.739-6.913-12.758-3.573-12.829-3.538-1.572.82-2.528 2.133-2.84 3.903a7.348 7.348 0 0 0 .044 2.729c.052.35.171.694.354 1.023 1.486 2.682 6.891 3.76 7.499 3.874 2.114.64 4.576 2.204 4.682 2.271.634.411 1.26.617 1.87.617.23 0 .457-.03.682-.088 1.367-.36 2.068-1.696 2.074-1.708 1.644-2.78.392-5.898-.5-7.509a11.57 11.57 0 0 0-1.036-1.574z" fill="#D9C2B5"/><path d="M40.756 48.318c-5.739-6.913-12.758-3.573-12.829-3.538-1.572.82-2.528 2.133-2.84 3.903a7.348 7.348 0 0 0 .044 2.729c.052.35.171.694.354 1.023 1.486 2.682 6.891 3.76 7.499 3.874 2.114.64 4.576 2.204 4.682 2.271.634.411 1.26.617 1.87.617.23 0 .457-.03.682-.088 1.367-.36 2.068-1.696 2.074-1.708 1.644-2.78.392-5.898-.5-7.509a11.57 11.57 0 0 0-1.036-1.574zM29.163 46a.507.507 0 0 0 .762.667c.288-.327.567-.929.418-1.56 1.92-.344 4.785-.288 7.612 1.888.087.98-.423 1.55-.445 1.574a.507.507 0 0 0 .735.696c.021-.022.508-.545.676-1.434.377.361.722.731 1.053 1.13.019.024.464.58.93 1.422.963 1.736 1.832 4.277.504 6.525-.022.04-.55.99-1.453 1.223-.531.138-1.116.003-1.74-.4-.025-.018-2.633-1.7-4.966-2.4l-.054-.013a21.204 21.204 0 0 1-2.948-.811c-2.531-.905-3.505-1.893-3.876-2.562a2.024 2.024 0 0 1-.241-.7l-.011-.053c-.01-.038-.948-3.831 2.265-5.509.003-.002.358-.17.968-.347.08.344-.186.661-.19.664z" fill="#66452E" stroke="#66452E" stroke-width="2"/><path d="M37.46 55.76a.494.494 0 0 0 .376-.055c.39-.236 1.005-.874.831-1.771a.495.495 0 0 0-.584-.395.5.5 0 0 0-.392.587c.084.431-.352.711-.37.723a.505.505 0 0 0-.168.684.494.494 0 0 0 .306.228zm-3.004-4.28a.497.497 0 0 0 .375-.057c.391-.235 1.006-.873.832-1.77a.495.495 0 0 0-.584-.395.5.5 0 0 0-.392.586c.083.43-.352.711-.37.723a.499.499 0 0 0 .139.913zm-5.828-.652c.084.433-.351.71-.37.722a.501.501 0 0 0 .26.928.493.493 0 0 0 .255-.071c.39-.235 1.005-.873.832-1.77a.495.495 0 0 0-.584-.395.5.5 0 0 0-.393.586z" fill="#7A563D" stroke="#7A563D"/></svg>