<svg width="146" height="146" fill="none" xmlns="http://www.w3.org/2000/svg"><mask id="a" maskUnits="userSpaceOnUse" x="0" y="0" width="146" height="146"><rect width="146" height="146" rx="73" fill="#fff"/></mask><g mask="url(#a)"><path d="M69 143.5c0 2.5-2.924 1.787-5.5 1.5-2.18-.243-4.498-.193-4.5-2.5-.005-5.204 9.995-4.184 10 1z" fill="#75C738"/><path d="M106.277 144.755c0 6.379-9.578 6.379-9.578 0 0-6.386 9.578-6.386 9.578 0z" fill="#93D65E"/><path d="M87 142.5c2 3-8.71 3.983-9 1.5-.57-4.893 7-4.5 9-1.5z" fill="#75C738"/><path d="M50.193 144.755c0 6.379-9.579 6.379-9.579 0 0-6.386 9.58-6.386 9.58 0zm8.388-9.58c.09 4.555-7.536 4.343-7.661 0-.197-4.638 7.43-4.554 7.661 0zm18.693.001c.106 4.604-7.52 4.468-7.655 0-.026-4.854 7.632-4.878 7.655 0zm18.699-.001c-.228 3.074-7.823 3.413-7.662 0 .057-4.817 7.738-4.719 7.662 0zm-56.09 0c.381 2.676-2.383 1.325-2.383 1.325s-6-3-5.5-5.5c1.5-4 7.5 1.5 7.882 4.175zm73.19-1.675c-1.144.889-6.073 5.331-6.073 1.5 0-3.605 4-4 5-3.5 1.5.5 1.819 1.42 1.073 2zm-64.607-5.979c0 4.083-5.466 3.479-6.124 0 0-4.083 5.658-4.021 6.124 0zm18.7 0c.165 3.521-6.131 4.083-6.131 0 0-3.521 5.965-3.521 6.13 0zm18.692 0c-.358 3.479-6.89 4.021-6.124 0s6.266-3.521 6.124 0zm18.699 0c0 3.479-6.057 4.562-6.057.479s6.057-4.562 6.057-.479zm-74.785 0c0 2.84-1.966 2.09-3.772.979-.79-.486-2.5-2.257-2.5-3.5 0-4.083 6.272-1.562 6.272 2.521zM122.5 125.5c.444.887-3.5 4-4.5 4s-1.038-1.148-.881-1.979c.381-2.021 4.381-4.021 5.381-2.021z" fill="#93D65E"/><path d="M38.507 121.389c0 3.271-4.9 3.271-4.9 0 0-3.265 4.9-3.265 4.9 0z" fill="#FAD95A"/><path d="M57.206 121.389c0 3.271-4.9 3.271-4.9 0 0-3.265 4.9-3.265 4.9 0zm18.694 0c0 3.271-4.9 3.271-4.9 0 0-3.265 4.9-3.265 4.9 0zm37.392 0c0 3.271-4.907 3.271-4.907 0 0-3.265 4.907-3.265 4.907 0z" fill="#93D65E"/><path d="M57.206 121.389c0 3.271-4.9 3.271-4.9 0 0-3.265 4.9-3.265 4.9 0z" fill="#FAD95A"/><path d="M75.9 121.389c0 3.271-4.9 3.271-4.9 0 0-3.265 4.9-3.265 4.9 0zm37.392 0c0 3.271-4.907 3.271-4.907 0 0-3.265 4.907-3.265 4.907 0z" fill="#93D65E"/><path d="M75.9 121.389c0 3.271-4.9 3.271-4.9 0 0-3.265 4.9-3.265 4.9 0zm-56.086 0C19.5 122.5 16 119.5 16 117.5c0-2.237 3.814.624 3.814 3.889z" fill="#FAD95A"/><path d="M113.292 121.389c0 3.271-4.907 3.271-4.907 0 0-3.265 4.907-3.265 4.907 0z" fill="#93D65E"/><path d="M94.593 121.389c0 3.271-4.593 3.111-4.9 0 0-3.265 4.307-3.389 4.9 0zm18.699 0c0 3.271-4.907 3.271-4.907 0 0-3.265 4.907-3.265 4.907 0zM129.5 119c0 .5-3 2.5-3.5 2s3.5-4 3.5-2z" fill="#FAD95A"/><path d="M28.667 116.49c0 2.617-3.926 2.617-3.926 0 0-2.611 3.926-2.611 3.926 0z" fill="#ACEB7C"/><path d="M47.366 116.49c0 2.617-3.926 2.617-3.926 0 0-2.611 3.926-2.611 3.926 0zm18.694 0c0 2.617-3.926 2.617-3.926 0 0-2.611 3.926-2.611 3.926 0zm18.692 0c0 2.617-3.919 2.617-3.919 0 0-2.611 3.92-2.611 3.92 0zm18.7 0c0 2.617-3.926 2.617-3.926 0 0-2.611 3.926-2.611 3.926 0zm18.692 0c0 2.617-3.926 2.617-3.926 0 0-2.611 3.926-2.611 3.926 0z" fill="#93D65E"/><path d="M47.366 116.49c0 2.617-3.926 2.617-3.926 0 0-2.611 3.926-2.611 3.926 0z" fill="#ACEB7C"/><path d="M66.06 116.49c0 2.617-3.926 2.617-3.926 0 0-2.611 3.926-2.611 3.926 0zm18.692 0c0 2.617-3.919 2.617-3.919 0 0-2.611 3.92-2.611 3.92 0zm18.7 0c0 2.617-3.926 2.617-3.926 0 0-2.611 3.926-2.611 3.926 0zm18.692 0c0 2.617-3.926 2.617-3.926 0 0-2.611 3.926-2.611 3.926 0zm18.693 0c0 2.617-3.919 2.617-3.919 0 0-2.611 3.919-2.611 3.919 0z" fill="#93D65E"/><path d="M66.06 116.49c0 2.617-3.926 2.617-3.926 0 0-2.611 3.926-2.611 3.926 0zm-56.086 0c0 2.617-3.926 2.617-3.926 0 0-2.611 3.926-2.611 3.926 0z" fill="#ACEB7C"/><path d="M84.752 116.49c0 2.617-3.919 2.617-3.919 0 0-2.611 3.92-2.611 3.92 0zm18.7 0c0 2.617-3.926 2.617-3.926 0 0-2.611 3.926-2.611 3.926 0zm18.692 0c0 2.617-3.926 2.617-3.926 0 0-2.611 3.926-2.611 3.926 0zm18.693 0c0 2.617-3.919 2.617-3.919 0 0-2.611 3.919-2.611 3.919 0z" fill="#93D65E"/><path d="M84.752 116.49c0 2.617-3.919 2.617-3.919 0 0-2.611 3.92-2.611 3.92 0zm18.7 0c0 2.617-3.926 2.617-3.926 0 0-2.611 3.926-2.611 3.926 0zm18.692 0c0 2.617-3.926 2.617-3.926 0 0-2.611 3.926-2.611 3.926 0zm18.693 0c0 2.617-3.919 2.617-3.919 0 0-2.611 3.919-2.611 3.919 0z" fill="#ACEB7C"/><path d="M18.833 112.57c0 2.094-3.134 2.094-3.134 0 0-2.093 3.134-2.093 3.134 0z" fill="#CCF0AD"/><path d="M37.532 112.57c0 2.094-3.14 2.094-3.14 0 0-2.093 3.14-2.093 3.14 0zm18.693 0c0 2.094-3.134 2.094-3.134 0 0-2.093 3.134-2.093 3.134 0zm18.7 0c0 2.094-3.14 2.094-3.14 0 0-2.093 3.14-2.093 3.14 0zm18.693 0c0 2.094-3.14 2.094-3.14 0 0-2.093 3.14-2.093 3.14 0zm18.699 0c0 2.094-3.14 2.094-3.14 0 0-2.093 3.14-2.093 3.14 0z" fill="#93D65E"/><path d="M37.532 112.57c0 2.094-3.14 2.094-3.14 0 0-2.093 3.14-2.093 3.14 0z" fill="#CCF0AD"/><path d="M56.225 112.57c0 2.094-3.134 2.094-3.134 0 0-2.093 3.134-2.093 3.134 0zm18.7 0c0 2.094-3.14 2.094-3.14 0 0-2.093 3.14-2.093 3.14 0zm18.693 0c0 2.094-3.14 2.094-3.14 0 0-2.093 3.14-2.093 3.14 0zm18.699 0c0 2.094-3.14 2.094-3.14 0 0-2.093 3.14-2.093 3.14 0zm18.693 0c0 2.094-3.141 2.094-3.141 0 0-2.093 3.141-2.093 3.141 0z" fill="#93D65E"/><path d="M56.225 112.57c0 2.094-3.134 2.094-3.134 0 0-2.093 3.134-2.093 3.134 0zm-56.084 0c0 2.094-3.141 2.094-3.141 0 0-2.093 3.14-2.093 3.14 0z" fill="#CCF0AD"/><path d="M74.925 112.57c0 2.094-3.14 2.094-3.14 0 0-2.093 3.14-2.093 3.14 0zm18.693 0c0 2.094-3.14 2.094-3.14 0 0-2.093 3.14-2.093 3.14 0zm18.699 0c0 2.094-3.14 2.094-3.14 0 0-2.093 3.14-2.093 3.14 0zm18.693 0c0 2.094-3.141 2.094-3.141 0 0-2.093 3.141-2.093 3.141 0z" fill="#93D65E"/><path d="M74.925 112.57c0 2.094-3.14 2.094-3.14 0 0-2.093 3.14-2.093 3.14 0zm18.693 0c0 2.094-3.14 2.094-3.14 0 0-2.093 3.14-2.093 3.14 0zm18.699 0c0 2.094-3.14 2.094-3.14 0 0-2.093 3.14-2.093 3.14 0zm18.693 0c0 2.094-3.141 2.094-3.141 0 0-2.093 3.141-2.093 3.141 0z" fill="#CCF0AD"/></g><path fill-rule="evenodd" clip-rule="evenodd" d="M61.688 32.35c6.688-2.956 14.06 2.458 13.241 9.723L71.873 69.19a6.416 6.416 0 0 1-1.977 3.951l-.082.079 6.42 8.931a3.36 3.36 0 0 1-4.049 5.053l-16.068-6.86-6.755.524a6.416 6.416 0 0 1-6.534-4.227l-8.165-22.726a9.471 9.471 0 0 1 5.084-11.865l21.941-9.7z" fill="#FAEFE6"/><path fill-rule="evenodd" clip-rule="evenodd" d="M71.241 82.343c-7.392-18.098 10.903-36.247 29.113-28.776 10.253 4.206 15.825 15.43 12.877 26.14-3.214 11.684-15.292 18.55-26.976 15.335l-.873-.24L68.5 98c-1.489.34-3.214.148-3.918-.851-.757-1.073-.402-2.361.418-3.649l6.241-11.157z" fill="#51B816"/><path fill-rule="evenodd" clip-rule="evenodd" d="M102.952 69.467a3.08 3.08 0 0 1-1.246 4.175L88.77 80.63a5.092 5.092 0 0 1-6.749-1.798L79.3 74.44a3.08 3.08 0 0 1 5.238-3.246l2.191 3.537 12.05-6.51a3.08 3.08 0 0 1 4.174 1.246z" fill="#fff"/><path fill-rule="evenodd" clip-rule="evenodd" d="M53.095 60.563l.001.012a7.11 7.11 0 0 0 .338 1.664 1.911 1.911 0 0 0 2.404 1.237l2.066-.662a1.68 1.68 0 0 0 1.087-2.111 3.708 3.708 0 0 1-.168-.74c-.01-.183.011-.376.073-.583.066-.219.18-.482.356-.791.189-.333.445-.74.771-1.22l.003-.005c.441-.662.819-1.278 1.132-1.848.33-.602.579-1.201.739-1.794a6.276 6.276 0 0 0 .223-1.867v-.004a7.616 7.616 0 0 0-.382-2.039c-.315-.983-.78-1.826-1.41-2.51a5.83 5.83 0 0 0-2.209-1.534c-.858-.341-1.804-.49-2.828-.464-1.028.016-2.107.21-3.236.571-.61.196-1.211.45-1.803.763-.585.31-1.15.66-1.694 1.053-.533.376-1.04.78-1.52 1.211-1.056.936-1 2.496-.11 3.464l.115.125c1.062 1.154 2.82 1.168 3.975.206.212-.177.423-.347.632-.51.698-.538 1.366-.899 2.004-1.103.747-.24 1.224-.199 1.527-.048l.008.003c.357.171.6.446.738.878.11.345.162.636.17.88a2.34 2.34 0 0 1-.108.757 4.72 4.72 0 0 1-.424.903c-.209.355-.475.773-.802 1.254-.392.582-.719 1.14-.973 1.668a6.892 6.892 0 0 0-.572 1.591l-.001.006c-.11.52-.15 1.05-.122 1.587zm1.697 6.826v.01c-.039.496.047 1.025.223 1.576.171.534.406 1.002.723 1.38l.012.014c.316.358.686.636 1.112.82.42.18.865.26 1.328.245a4.693 4.693 0 0 0 1.35-.23c.428-.137.821-.33 1.174-.58.384-.256.698-.58.934-.969.24-.396.38-.838.428-1.313.053-.501-.023-1.027-.196-1.566-.178-.554-.423-1.038-.758-1.418a2.957 2.957 0 0 0-1.13-.829 3.174 3.174 0 0 0-1.312-.223 4.617 4.617 0 0 0-1.277.225 5.104 5.104 0 0 0-1.227.575l-.005.003c-.383.253-.7.568-.94.946a2.958 2.958 0 0 0-.439 1.334z" fill="#E86B13"/></svg>