<svg width="81" height="80" fill="none" xmlns="http://www.w3.org/2000/svg"><circle cx="40.5" cy="40" r="40" fill="#FAF4DC"/><path fill-rule="evenodd" clip-rule="evenodd" d="M40.123 24a2.053 2.053 0 0 1 1.765 1.035l4.726 8.214a.52.52 0 0 0 .135.111l.077.014 7.159 1.47a2.07 2.07 0 0 1 1.562 1.442 2.107 2.107 0 0 1-.515 2.079L48.981 44.5c-.01.01-.013.016-.013.016s-.004.007-.006.019a.451.451 0 0 0 .017.202l2.8 8.516c.263.8.025 1.684-.604 2.237a2.036 2.036 0 0 1-2.269.29l-8.694-4.408a.449.449 0 0 0-.09-.036l-.012-.002-.012.002a.451.451 0 0 0-.09.036l-8.694 4.408a2.036 2.036 0 0 1-2.26-.282 2.105 2.105 0 0 1-.62-2.221l2.727-8.642c.014-.045.03-.09.047-.134a.26.26 0 0 0-.054-.087l-6.051-6.136a2.107 2.107 0 0 1-.515-2.078 2.07 2.07 0 0 1 1.562-1.443l7.16-1.469c.04-.008.081-.015.122-.021a.531.531 0 0 0 .087-.099l4.826-8.155A2.053 2.053 0 0 1 40.123 24z" fill="#F0C10A"/></svg>