<svg width="146" height="147" fill="none" xmlns="http://www.w3.org/2000/svg"><path fill-rule="evenodd" clip-rule="evenodd" d="M44.648 16.059c6.013.208 12.206 1.322 16.11 5.9 4.046 4.744 5.087 11.292 3.743 17.38-1.358 6.145-5.137 11.527-10.754 14.363-5.75 2.904-12.542 3.098-18.362.34-5.867-2.779-9.939-8.195-11.513-14.492-1.618-6.474-1.22-13.758 3.202-18.757 4.228-4.781 11.195-4.955 17.573-4.734z" fill="#2F95E5"/><path fill-rule="evenodd" clip-rule="evenodd" d="M66.397 106c6.106-.001 13.581 2.644 17.224 7.52 3.472 4.647 4.769 10.364 3.795 16.073-1.057 6.202-3.422 12.821-9.169 15.445-5.668 2.588-11.863-.572-17.475-3.279-5.584-2.694-10.949-7.403-12.426-13.4-1.496-6.07-2.566-12.208 1.435-17.026 3.89-4.683 10.51-5.332 16.616-5.333z" fill="#75C738"/><path fill-rule="evenodd" clip-rule="evenodd" d="M104.06 23.136c6.229-.451 13.051.01 17.176 4.702 4.302 4.896 4.86 12.067 3.07 18.335-1.676 5.87-6.522 9.837-11.925 12.67-5.712 2.994-12.249 5.738-18.126 3.084-5.998-2.71-9.17-9.311-10.096-15.833-.834-5.876 1.695-11.493 5.58-15.976 3.662-4.224 8.75-6.58 14.321-6.982z" fill="#F58433"/><path fill-rule="evenodd" clip-rule="evenodd" d="M21.971 68.098c5.649.46 10.05 4.18 13.771 8.454 4.014 4.61 8.522 9.805 7.348 15.803-1.2 6.132-7.203 9.674-12.855 12.34-5.577 2.63-12.003 4.811-17.474 1.965-5.341-2.778-6.591-9.343-7.974-15.203-1.4-5.94-3.332-12.484.284-17.4 3.724-5.062 10.637-6.469 16.9-5.96z" fill="#F5CC27"/><path fill-rule="evenodd" clip-rule="evenodd" d="M117.276 77c6.269.04 11.043 5.056 14.659 10.123 3.306 4.633 5.161 10.223 3.792 15.731-1.342 5.403-5.585 9.439-10.648 11.863-5.076 2.431-10.905 3.199-16.055.925-5.332-2.354-9.303-7.066-10.605-12.696-1.304-5.635.552-11.317 3.963-16.01 3.678-5.06 8.595-9.975 14.894-9.936z" fill="#E53751"/><path fill-rule="evenodd" clip-rule="evenodd" d="M68.382 57c5.705.057 10.724 3.047 14.547 7.282 4.206 4.659 7.893 10.301 6.925 16.502-1.038 6.644-5.663 12.447-11.855 15.07-5.89 2.495-12.407.56-18.084-2.388-5.42-2.814-10.267-7.044-11.572-13.01-1.291-5.907 1.2-11.865 5.128-16.464 3.752-4.391 9.136-7.048 14.911-6.991z" fill="#fff"/><path d="M62.928 78.456s1.353-2.908 5.099-2.908c3.746 0 4.943-1.777 4.943-1.777v7.876H62.928v-3.192z" fill="#FAA86E"/><path fill-rule="evenodd" clip-rule="evenodd" d="M69.484 67.986l.014-.08c.057-.34.114-.817.04-1.257a1.778 1.778 0 0 0-.379-.856A1.498 1.498 0 0 0 68 65.258c-.447 0-.867.186-1.16.535-.25.299-.34.634-.378.856-.074.44-.017.917.04 1.256l.008.046a4.43 4.43 0 0 0-.424.091c-.656.176-1.217.497-1.823.97-1.117.868-2.463 2.381-2.463 4.446 0 .42.003.99.006 1.663.006 1.497.015 3.507.004 5.51H60.5a1.2 1.2 0 1 0 0 2.4h15a1.2 1.2 0 0 0 0-2.4h-1.3v-7.173c0-2.028-1.076-3.414-2.483-4.462-.555-.413-1.105-.71-1.741-.894a5.226 5.226 0 0 0-.492-.116zM71.8 80.63v-7.172c0-1.006-.47-1.757-1.517-2.538-.374-.278-.668-.424-.972-.512-.32-.092-.713-.139-1.317-.142-.666-.003-1.006.02-1.287.095-.247.066-.522.195-.97.544-.886.69-1.537 1.584-1.537 2.553 0 .404.002.963.005 1.627.007 1.495.016 3.527.005 5.546h7.59zm-3.899 3.84v-.002l-.002-.003-.002-.005-.005-.01-.009-.019a.733.733 0 0 0-.042-.072.186.186 0 0 0-.038-.041.165.165 0 0 0 .022.007c.028.046.053.094.076.144zm.346-.198a.117.117 0 0 1-.01.007c-.015.012-.087.063-.264.063a.53.53 0 0 1-.148-.017 1.2 1.2 0 0 0-2.117 1.12l1.097-.487a91.936 91.936 0 0 0-1.096.488v.002l.002.003.002.006.006.012a2.142 2.142 0 0 0 .05.097 2.22 2.22 0 0 0 .52.613c.389.318.948.563 1.684.563.732 0 1.29-.24 1.676-.521a2.487 2.487 0 0 0 .545-.544 1.64 1.64 0 0 0 .04-.059l.015-.024.007-.01.003-.005.001-.003v-.001c.001 0 .001-.001-1.028-.617l1.03.616a1.2 1.2 0 0 0-2.016-1.302zm-.045.069v.001l1.006.602a99.04 99.04 0 0 1-1.006-.603zm-.406-.028l.007.005-.007-.005z" fill="#E05D00"/><g clip-path="url(#clip0)"><path fill-rule="evenodd" clip-rule="evenodd" d="M103.773 33.69a1.2 1.2 0 0 1 1.263-.783 8.343 8.343 0 1 1-4.683 15.75l-3.098 3.097a1.2 1.2 0 0 1-1.072.33c-.752-.142-1.478-.385-2.038-.958-.548-.562-.78-1.283-.932-1.988a1.2 1.2 0 0 1 .325-1.102l3.746-3.745c0-.002.001-.002.002-.003l.593-.593a1.2 1.2 0 0 1 1.41-.212 4.867 4.867 0 0 0 5.724-.862 4.87 4.87 0 0 0-.771-7.52 1.2 1.2 0 0 1-.469-1.41zm-5.737 13.242l-2.302 2.302a.667.667 0 0 0 .128.215.553.553 0 0 0 .187.117l2.31-2.31a8.47 8.47 0 0 1-.323-.324zm3.263-.49a5.945 5.945 0 0 0 7.303-9.12 7.267 7.267 0 0 1-1.891 6.996 7.252 7.252 0 0 1-5.412 2.125z" fill="#fff"/></g><path fill-rule="evenodd" clip-rule="evenodd" d="M118.636 91.636c0 .606-.329 1.135-.818 1.418v1.317c.689.12 1.326.392 1.876.778l.634-.634a1.636 1.636 0 1 1 1.157 1.157l-.633.634c.385.55.656 1.187.777 1.876h1.317a1.636 1.636 0 1 1 0 1.636h-1.317a4.682 4.682 0 0 1-.777 1.876l.633.634a1.635 1.635 0 1 1-1.157 1.157l-.634-.633a4.681 4.681 0 0 1-1.876.777v1.317a1.636 1.636 0 1 1-1.636 0v-1.317a4.669 4.669 0 0 1-1.876-.778l-.634.634a1.635 1.635 0 1 1-1.157-1.157l.634-.634a4.669 4.669 0 0 1-.778-1.876h-1.317a1.637 1.637 0 1 1 0-1.636h1.317a4.675 4.675 0 0 1 .778-1.876l-.634-.634a1.639 1.639 0 0 1-2.06-1.581 1.636 1.636 0 1 1 3.217.424l.634.633a4.67 4.67 0 0 1 1.876-.777v-1.317a1.636 1.636 0 1 1 2.454-1.418zM114.7 99a2.3 2.3 0 1 1 4.6 0 2.3 2.3 0 0 1-4.6 0z" fill="#fff"/><g clip-path="url(#clip1)"><path fill-rule="evenodd" clip-rule="evenodd" d="M15.562 83.156a2.544 2.544 0 0 0 1.285 2.297c.556.316 2.535 1.332 4.762.477.236-.09.462-.198.677-.32 1.288-.728 2.088-1.904 2.456-3.238.17-.618.215-1.162.227-1.482a2.544 2.544 0 0 0-1.287-2.308c-.555-.314-2.537-1.33-4.761-.477a5.09 5.09 0 0 0-.672.316l-.005.003c-1.148.65-1.924 1.67-2.336 2.854a6.466 6.466 0 0 0-.346 1.877zm6.727-1.459c-.215.778-.637 1.35-1.257 1.7a2.503 2.503 0 0 1-.334.158c-1.096.42-2.17-.074-2.593-.314a3.92 3.92 0 0 1 .206-1.127c.231-.665.63-1.161 1.187-1.476.108-.061.22-.114.334-.158 1.093-.42 2.17.074 2.594.315a4.047 4.047 0 0 1-.137.902zm3.416 4.288c.242-.717.86-1.24 1.608-1.36.308-.05.87-.109 1.527-.015.994.143 1.912.597 2.598 1.4l.003.003c.126.148.244.308.351.479 1.01 1.616.514 3.328.352 3.812a2.036 2.036 0 0 1-1.616 1.363c-.253.04-.687.087-1.198.048-1.104-.085-2.15-.534-2.918-1.435a4.026 4.026 0 0 1-.355-.482c-1.011-1.619-.515-3.328-.352-3.813zm2.254 2.973c.37.433.883.678 1.526.727.307.024.575-.005.73-.03.124-.37.347-1.29-.15-2.085a2.047 2.047 0 0 0-.174-.238c-.332-.389-.783-.627-1.34-.707a3.136 3.136 0 0 0-.917.01c-.124.369-.348 1.288.15 2.084.051.083.11.163.175.239zM14.745 94.77a2.4 2.4 0 0 1-.355-2.458c.143-.338.435-.939.94-1.536.763-.904 1.79-1.539 3.021-1.723l.005-.001a4.79 4.79 0 0 1 .699-.052c2.247 0 3.649 1.565 4.031 2.03a2.4 2.4 0 0 1 .354 2.467 6.213 6.213 0 0 1-.701 1.228c-.775 1.051-1.877 1.816-3.258 2.022a4.74 4.74 0 0 1-.704.053c-2.25 0-3.65-1.564-4.032-2.03zm4.38-.396c.665-.1 1.23-.46 1.681-1.072.215-.292.354-.578.427-.748-.293-.355-1.075-1.154-2.178-1.154-.115 0-.232.009-.348.026-.596.09-1.116.392-1.544.898a3.7 3.7 0 0 0-.563.923c.291.355 1.07 1.153 2.177 1.153.115 0 .232-.009.349-.026z" fill="#fff"/></g><path fill-rule="evenodd" clip-rule="evenodd" d="M73.096 116.835c-.563.119-.981.278-1.247.456-.799.533-1.405 1.102-1.815 1.77-.258.42-.456.908-.565 1.494.32.015.69.022 1.084.01 1.296-.042 2.614-.29 3.439-.902.988-.733 1.62-1.803 1.963-2.724.043-.116.08-.226.113-.33a19.247 19.247 0 0 0-1.213.018 11.24 11.24 0 0 0-1.76.208zm-3.721 6.118c.37.018.797.025 1.256.01 1.404-.045 3.352-.304 4.791-1.372 1.47-1.092 2.333-2.608 2.783-3.816a7.133 7.133 0 0 0 .414-1.634 2.792 2.792 0 0 0 0-.72 1.49 1.49 0 0 0-.192-.545 1.264 1.264 0 0 0-1.084-.62h.004l-.057-.002a6.295 6.295 0 0 0-.181-.009 22.83 22.83 0 0 0-2.368-.015c-.675.032-1.425.105-2.142.257-.705.149-1.457.391-2.082.807-.981.655-1.88 1.455-2.528 2.511-.43.699-.73 1.48-.888 2.358a5.283 5.283 0 0 0-2.051-1.007c-1.562-.374-3.42-.464-3.955-.464-.502 0-.862.282-1.05.559a1.435 1.435 0 0 0-.225.58c-.041.253-.022.508.002.698.053.41.184.908.372 1.411.36.965 1.05 2.265 2.162 3.006 1.147.765 2.707.988 3.806 1.059.266.017.519.026.75.029l-.014.447c-.024.711-.052 1.561-.078 2.388a3.533 3.533 0 0 0-1.735 1.273c-.059.079-.113.159-.163.236a6.447 6.447 0 0 0-.187-.044 4.214 4.214 0 0 0-3.059.476 4.296 4.296 0 0 0-1.945 2.364 4.466 4.466 0 0 0-.233 1.27 2.92 2.92 0 0 0 0 .133v.019l.001.003v.001l1.199-.051 1.199-.051V134.501a2.103 2.103 0 0 1 .107-.557c.117-.344.353-.754.877-1.058a1.812 1.812 0 0 1 1.35-.205c.2.042.374.106.523.167l.068.027.164.068c.034.013.113.043.205.066a1.238 1.238 0 0 0 1.309-.463c.052-.071.087-.136.105-.168a2.1 2.1 0 0 0 .074-.16c.017-.038.028-.066.038-.091l.052-.121a2.24 2.24 0 0 1 .244-.435c.179-.241.435-.463.93-.489.645.081.924.354 1.081.567.096.131.165.268.23.412l.017.04c.026.059.067.151.098.214.022.044.07.138.142.237l.002.003c.045.061.259.354.672.471.324.091.604.021.65.01l.004-.002c.09-.021.168-.049.212-.065.061-.022.145-.056.213-.083l.064-.026c.182-.071.383-.145.604-.195.44-.1.868-.09 1.27.168.484.312.733.74.866 1.12a2.514 2.514 0 0 1 .13.619v-.013c0-.001 0-.002 1.2-.01l1.2-.009v-.021l-.001-.032a3.215 3.215 0 0 0-.036-.392c-.034-.24-.1-.567-.228-.934a4.527 4.527 0 0 0-1.833-2.346c-1.135-.73-2.294-.673-3.098-.491a6.288 6.288 0 0 0-.32.083 3.694 3.694 0 0 0-1.862-1.474 1047.408 1047.408 0 0 1 .118-3.605l.017-.486v-.011l.02-1.188v-.69zm-2.512.68a5.507 5.507 0 0 0-.446-.732c-.456-.631-1.09-1.211-1.926-1.411a15.168 15.168 0 0 0-2.021-.316c.298.767.746 1.461 1.217 1.775.586.391 1.594.594 2.629.661.19.012.375.019.547.023z" fill="#fff"/><g clip-path="url(#clip2)"><path fill-rule="evenodd" clip-rule="evenodd" d="M37.832 33.061a9.186 9.186 0 0 0-1.082.435 2.51 2.51 0 0 1-.09.054 1.943 1.943 0 0 0 .969 3.627h.004l11.938.026h.003a3.029 3.029 0 0 0-.003-6.057c-.044 0-.088-.002-.133-.004a2.367 2.367 0 0 0-.26 0c-.051.003-.101.004-.152.004-.456.06-.744.12-.974.19-.321.1-.534.213-1 .463-.138.075-.3.161-.493.263a1.2 1.2 0 0 1-1.118-2.124c.128-.067.251-.134.371-.199.29-.156.565-.304.85-.434a4.654 4.654 0 0 0-8.718 1.25c.245-.055.511-.107.814-.165a1.2 1.2 0 0 1 .455 2.356c-.677.13-1.037.207-1.38.315zm-2.369-1.591a4.345 4.345 0 0 0-2.03 4.885 4.343 4.343 0 0 0 4.195 3.222l11.943.026a5.429 5.429 0 1 0 0-10.857 4.768 4.768 0 0 0-.526 0l-.008-.02a7.054 7.054 0 0 0-13.574 2.705v.039zm3.292 10.901a1.1 1.1 0 1 0-1.905-1.1L35.2 44.13a1.1 1.1 0 0 0 1.905 1.1l1.65-2.858zm5.098-1.503a1.1 1.1 0 0 1 .402 1.503l-1.65 2.858a1.1 1.1 0 0 1-1.905-1.1l1.65-2.858a1.1 1.1 0 0 1 1.503-.403zm5.902 1.503a1.1 1.1 0 1 0-1.905-1.1L46.2 44.13a1.1 1.1 0 0 0 1.905 1.1l1.65-2.858z" fill="#fff"/></g><defs><clipPath id="clip0"><path fill="#fff" transform="translate(91 31)" d="M0 0H24V24H0z"/></clipPath><clipPath id="clip1"><path fill="#fff" transform="translate(11 75)" d="M0 0H24V24H0z"/></clipPath><clipPath id="clip2"><path fill="#fff" transform="translate(32 23)" d="M0 0H24V24H0z"/></clipPath></defs></svg>