<svg width="146" height="147" viewBox="0 0 146 147" fill="none" xmlns="http://www.w3.org/2000/svg">
<path fill-rule="evenodd" clip-rule="evenodd" d="M44.6475 16.0586C50.661 16.2669 56.854 17.3812 60.7584 21.9596C64.8039 26.7035 65.8455 33.2512 64.5008 39.339C63.1435 45.4835 59.3638 50.8658 53.7467 53.7024C47.9975 56.6057 41.205 56.8 35.3845 54.0426C29.5184 51.2635 25.4463 45.8468 23.8723 39.5495C22.2542 33.0756 22.6529 25.7916 27.0736 20.793C31.3022 16.0117 38.2685 15.8376 44.6475 16.0586Z" fill="#2F95E5"/>
<path fill-rule="evenodd" clip-rule="evenodd" d="M66.3968 106C72.5032 105.999 79.9784 108.644 83.6214 113.52C87.0933 118.167 88.3895 123.884 87.4161 129.593C86.3585 135.795 83.9935 142.414 78.2471 145.038C72.579 147.626 66.3838 144.466 60.7722 141.759C55.188 139.065 49.823 134.356 48.3455 128.359C46.8501 122.289 45.7804 116.151 49.7814 111.333C53.6707 106.65 60.2911 106.001 66.3968 106Z" fill="#75C738"/>
<path fill-rule="evenodd" clip-rule="evenodd" d="M104.06 23.1356C110.289 22.6849 117.111 23.1452 121.236 27.8384C125.538 32.7337 126.096 39.9047 124.306 46.1733C122.63 52.0425 117.784 56.0103 112.381 58.8425C106.669 61.8368 100.132 64.5814 94.2553 61.9267C88.2569 59.2172 85.085 52.6159 84.1593 46.0945C83.3251 40.2178 85.8536 34.601 89.7398 30.1176C93.4007 25.8942 98.4885 23.5388 104.06 23.1356Z" fill="#F58433"/>
<path fill-rule="evenodd" clip-rule="evenodd" d="M21.9715 68.0979C27.6198 68.5575 32.0214 72.2783 35.7425 76.5524C39.7556 81.1618 44.2638 86.3568 43.09 92.3547C41.8899 98.4874 35.8873 102.029 30.2354 104.695C24.6579 107.325 18.232 109.506 12.7611 106.66C7.41995 103.882 6.16956 97.3165 4.78744 91.4566C3.38644 85.5168 1.45479 78.9729 5.07122 74.057C8.79532 68.9947 15.7076 67.5883 21.9715 68.0979Z" fill="#F5CC27"/>
<path fill-rule="evenodd" clip-rule="evenodd" d="M117.276 77.0002C123.545 77.0397 128.319 82.056 131.935 87.1226C135.241 91.7558 137.096 97.346 135.727 102.854C134.385 108.257 130.142 112.293 125.079 114.717C120.003 117.148 114.174 117.916 109.024 115.642C103.692 113.288 99.7214 108.576 98.4187 102.946C97.1151 97.311 98.9713 91.6295 102.382 86.9365C106.06 81.8762 110.977 76.9606 117.276 77.0002Z" fill="#E53751"/>
<path fill-rule="evenodd" clip-rule="evenodd" d="M68.382 57.0009C74.0869 57.057 79.1063 60.0475 82.9294 64.2821C87.1351 68.9405 90.8222 74.5832 89.8539 80.7841C88.8164 87.4277 84.1908 93.231 77.9993 95.8537C72.1087 98.3488 65.5924 96.4135 59.9147 93.4658C54.4957 90.6524 49.6475 86.4219 48.3435 80.4569C47.0519 74.5488 49.543 68.5905 53.4712 63.9923C57.2226 59.601 62.6068 56.9441 68.382 57.0009Z" fill="white"/>
<path d="M62.9277 78.4555C62.9277 78.4555 64.2805 75.5477 68.0268 75.5477C71.773 75.5477 72.9697 73.7712 72.9697 73.7712V81.6472H62.9277V78.4555Z" fill="#FAA86E"/>
<path fill-rule="evenodd" clip-rule="evenodd" d="M69.4841 67.9861C69.489 67.9592 69.4937 67.9322 69.4982 67.9052C69.5553 67.5658 69.6116 67.0894 69.5376 66.649C69.5003 66.4275 69.4109 66.0919 69.1595 65.7929C68.8664 65.4444 68.4471 65.2579 68 65.2579C67.5528 65.2579 67.1335 65.4444 66.8404 65.793C66.5891 66.0919 66.4996 66.4275 66.4624 66.649C66.3883 67.0894 66.4447 67.5658 66.5017 67.9052C66.5043 67.9206 66.507 67.936 66.5097 67.9514C66.368 67.9749 66.227 68.0047 66.0864 68.0424C65.4305 68.2182 64.8694 68.5387 64.2627 69.0111C63.1465 69.8804 61.8 71.3933 61.8 73.4579C61.8 73.8771 61.8026 74.4471 61.8056 75.1208C61.8123 76.6183 61.8214 78.6279 61.8097 80.6305H60.5C59.8373 80.6305 59.3 81.1677 59.3 81.8305C59.3 82.4932 59.8373 83.0305 60.5 83.0305H75.5C76.1627 83.0305 76.7 82.4932 76.7 81.8305C76.7 81.1677 76.1627 80.6305 75.5 80.6305H74.2V73.4579C74.2 71.4298 73.1236 70.0438 71.717 68.9957C71.1625 68.5826 70.612 68.2857 69.976 68.1022C69.8137 68.0553 69.65 68.0171 69.4841 67.9861ZM71.8 80.6305V73.4579C71.8 72.4521 71.3305 71.7007 70.283 70.9202C69.9093 70.6417 69.6149 70.4959 69.3106 70.4081C68.9915 70.316 68.5978 70.2691 67.9941 70.2661C67.3284 70.2628 66.9878 70.2855 66.7075 70.3606C66.4596 70.4271 66.1854 70.5558 65.7373 70.9047C64.8514 71.5946 64.2 72.4886 64.2 73.4579C64.2 73.8624 64.2025 74.4208 64.2055 75.0851C64.2122 76.5803 64.2213 78.6117 64.2097 80.6305H71.8ZM67.901 84.4694L67.9004 84.4681L67.8991 84.4653L67.8967 84.46L67.892 84.4498L67.8831 84.4313C67.8773 84.4197 67.8719 84.4094 67.8669 84.4005C67.857 84.3826 67.8484 84.3691 67.8411 84.3588C67.8268 84.3384 67.8155 84.3273 67.8082 84.3213C67.8064 84.3198 67.8048 84.3186 67.8033 84.3176C67.808 84.3197 67.8151 84.3225 67.8248 84.3253C67.853 84.371 67.8785 84.4191 67.901 84.4694ZM68.2465 84.2725C68.2442 84.2745 68.2413 84.2768 68.2378 84.2793C68.2218 84.2909 68.1505 84.3421 67.9733 84.3421C67.8985 84.3421 67.8515 84.3333 67.8248 84.3253C67.5142 83.8231 66.8726 83.6148 66.3178 83.8612C65.7121 84.1303 65.4392 84.8393 65.7082 85.445L66.8049 84.9579C65.7082 85.445 65.7085 85.4457 65.7088 85.4464L65.7095 85.4479L65.7108 85.4507L65.7135 85.4567L65.7193 85.4694C65.7235 85.4782 65.728 85.4876 65.733 85.4977C65.743 85.5179 65.7549 85.5407 65.7687 85.5656C65.7964 85.6154 65.8324 85.6746 65.8782 85.7397C65.9695 85.8695 66.1025 86.0267 66.2883 86.1787C66.6777 86.4974 67.2373 86.7421 67.9733 86.7421C68.705 86.7421 69.2629 86.5012 69.6488 86.2207C69.8359 86.0847 69.9755 85.9449 70.0738 85.8303C70.1232 85.7727 70.1628 85.7206 70.1936 85.6772C70.2091 85.6554 70.2224 85.6357 70.2336 85.6184L70.249 85.5942L70.2556 85.5835L70.2586 85.5786L70.2601 85.5762L70.2608 85.575C70.2611 85.5744 70.2615 85.5738 69.2316 84.9579L70.2615 85.5738C70.6016 85.005 70.4163 84.2682 69.8475 83.928C69.3025 83.6022 68.6033 83.7586 68.2465 84.2725ZM68.2024 84.3409C68.2021 84.3413 68.2019 84.3417 68.2017 84.342L69.2079 84.9438C68.2017 84.342 68.202 84.3415 68.2024 84.3409ZM67.7959 84.3132C67.7961 84.313 67.7988 84.3143 67.8033 84.3176C67.798 84.3151 67.7957 84.3134 67.7959 84.3132Z" fill="#E05D00"/>
<g clip-path="url(#clip0)">
<path fill-rule="evenodd" clip-rule="evenodd" d="M103.773 33.6908C103.962 33.1686 104.484 32.8442 105.036 32.9066C106.847 33.1111 108.606 33.9089 109.994 35.2972C113.252 38.5553 113.252 43.8377 109.994 47.0958C107.386 49.7044 103.479 50.2244 100.353 48.6557L97.255 51.7538C96.9745 52.0344 96.5734 52.1581 96.1835 52.0844C95.4315 51.9422 94.705 51.6995 94.1451 51.1261C93.5965 50.5643 93.3654 49.8427 93.2132 49.1383C93.1271 48.7398 93.2493 48.3248 93.5377 48.0364L97.2836 44.2905C97.2845 44.2895 97.2855 44.2885 97.2865 44.2875L97.8793 43.6948C98.2519 43.3222 98.824 43.2363 99.2897 43.483C99.6481 43.6729 100.025 43.815 100.413 43.9092C102.014 44.2985 103.768 43.8672 105.014 42.6208C106.917 40.7184 106.917 37.634 105.014 35.7316C104.773 35.4905 104.514 35.2807 104.242 35.1016C103.778 34.7965 103.584 34.2129 103.773 33.6908ZM98.0362 46.932L95.7339 49.2343C95.7873 49.3611 95.832 49.4184 95.8622 49.4494C95.8864 49.4742 95.9345 49.5163 96.0489 49.5658L98.3595 47.2552C98.3043 47.203 98.2497 47.1498 98.1956 47.0958C98.1416 47.0417 98.0885 46.9871 98.0362 46.932ZM101.299 46.4425C103.547 47.6413 106.403 47.2933 108.297 45.3987C110.512 43.1844 110.613 39.6574 108.602 37.3226C109.237 39.7408 108.607 42.4224 106.711 44.3179C105.222 45.8071 103.248 46.5144 101.299 46.4425Z" fill="white"/>
</g>
<path fill-rule="evenodd" clip-rule="evenodd" d="M118.636 91.6364C118.636 92.242 118.307 92.7708 117.818 93.0538V94.371C118.507 94.4918 119.144 94.7627 119.694 95.1485L120.328 94.5148C120.292 94.3796 120.273 94.2375 120.273 94.0909C120.273 93.1872 121.005 92.4546 121.909 92.4546C122.813 92.4546 123.545 93.1872 123.545 94.0909C123.545 94.9947 122.813 95.7273 121.909 95.7273C121.762 95.7273 121.62 95.708 121.485 95.6719L120.852 96.3056C121.237 96.8561 121.508 97.4931 121.629 98.1818H122.946C123.229 97.6927 123.758 97.3636 124.364 97.3636C125.267 97.3636 126 98.0963 126 99C126 99.9037 125.267 100.636 124.364 100.636C123.758 100.636 123.229 100.307 122.946 99.8182H121.629C121.508 100.507 121.237 101.144 120.852 101.694L121.485 102.328C121.62 102.292 121.762 102.273 121.909 102.273C122.813 102.273 123.545 103.005 123.545 103.909C123.545 104.813 122.813 105.545 121.909 105.545C121.005 105.545 120.273 104.813 120.273 103.909C120.273 103.762 120.292 103.62 120.328 103.485L119.694 102.852C119.144 103.237 118.507 103.508 117.818 103.629V104.946C118.307 105.229 118.636 105.758 118.636 106.364C118.636 107.267 117.904 108 117 108C116.096 108 115.364 107.267 115.364 106.364C115.364 105.758 115.693 105.229 116.182 104.946V103.629C115.493 103.508 114.856 103.237 114.306 102.851L113.672 103.485C113.708 103.62 113.727 103.762 113.727 103.909C113.727 104.813 112.995 105.545 112.091 105.545C111.187 105.545 110.455 104.813 110.455 103.909C110.455 103.005 111.187 102.273 112.091 102.273C112.238 102.273 112.38 102.292 112.515 102.328L113.149 101.694C112.763 101.144 112.492 100.507 112.371 99.8182H111.054C110.771 100.307 110.242 100.636 109.636 100.636C108.733 100.636 108 99.9037 108 99C108 98.0963 108.733 97.3636 109.636 97.3636C110.242 97.3636 110.771 97.6927 111.054 98.1818H112.371C112.492 97.4932 112.763 96.8561 113.149 96.3056L112.515 95.6719C112.38 95.708 112.238 95.7273 112.091 95.7273C111.187 95.7273 110.455 94.9947 110.455 94.0909C110.455 93.1872 111.187 92.4546 112.091 92.4546C112.995 92.4546 113.727 93.1872 113.727 94.0909C113.727 94.2375 113.708 94.3796 113.672 94.5148L114.306 95.1485C114.856 94.7627 115.493 94.4919 116.182 94.371V93.0539C115.693 92.7709 115.364 92.2421 115.364 91.6364C115.364 90.7326 116.096 90 117 90C117.904 90 118.636 90.7326 118.636 91.6364ZM114.7 99C114.7 97.7297 115.73 96.7 117 96.7C118.27 96.7 119.3 97.7297 119.3 99C119.3 100.27 118.27 101.3 117 101.3C115.73 101.3 114.7 100.27 114.7 99Z" fill="white"/>
<g clip-path="url(#clip1)">
<path fill-rule="evenodd" clip-rule="evenodd" d="M15.5616 83.1555C15.5299 84.1007 16.025 84.9855 16.8472 85.4528C17.4026 85.7685 19.3823 86.7851 21.6094 85.9302C21.8446 85.8399 22.0712 85.732 22.2858 85.6105C23.5743 84.8819 24.3744 83.7064 24.7419 82.372C24.9121 81.7535 24.9571 81.2098 24.969 80.8898C25.0043 79.9406 24.5079 79.0508 23.6818 78.5822C23.127 78.2675 21.1445 77.2511 18.9207 78.1047C18.6851 78.1952 18.4604 78.3023 18.2491 78.4213L18.2442 78.4241C17.0955 79.0744 16.3204 80.0931 15.9079 81.2778C15.6356 82.0609 15.5747 82.766 15.5616 83.1555ZM22.2887 81.697C22.0745 82.4746 21.652 83.0462 21.0325 83.3962C20.924 83.4577 20.8113 83.5111 20.6976 83.5548C19.602 83.9753 18.5276 83.4813 18.1046 83.2408C18.1126 83.0029 18.1513 82.5731 18.3111 82.1136C18.5424 81.4495 18.9419 80.9529 19.4978 80.6382C19.6064 80.577 19.7187 80.5238 19.8325 80.4801C20.9247 80.0608 22.0016 80.5543 22.4264 80.7953C22.4191 80.9905 22.3907 81.3263 22.2887 81.697ZM25.7051 85.9853C25.9466 85.2683 26.5658 84.7444 27.3129 84.625C27.6208 84.5758 28.1838 84.516 28.8403 84.6104C29.8337 84.7534 30.7519 85.2066 31.438 86.0094L31.441 86.0128C31.5666 86.1606 31.6851 86.3207 31.7921 86.4919C32.8019 88.108 32.3063 89.82 32.1439 90.3037C31.902 91.024 31.279 91.5496 30.5282 91.6668C30.2751 91.7063 29.8412 91.7539 29.3296 91.7147C28.2255 91.6298 27.1803 91.1809 26.4115 90.2803C26.2832 90.1303 26.164 89.9688 26.0572 89.7979C25.0458 88.1794 25.5419 86.4696 25.7051 85.9853ZM27.959 88.958C28.3284 89.3911 28.8418 89.6357 29.4852 89.6852C29.7918 89.7087 30.0599 89.6798 30.2143 89.6557C30.3387 89.2853 30.5618 88.3643 30.0659 87.5705C30.0142 87.4879 29.9552 87.4078 29.8906 87.3318C29.5586 86.9434 29.1077 86.7054 28.5508 86.6252C28.1656 86.5698 27.8222 86.605 27.6341 86.635C27.5098 87.0039 27.2859 87.9231 27.7834 88.7193C27.835 88.8019 27.8942 88.8823 27.959 88.958ZM14.745 94.7699C14.179 94.0804 14.0421 93.1339 14.3895 92.3123C14.5327 91.9737 14.8246 91.3734 15.3292 90.7759C16.0929 89.872 17.1197 89.237 18.3512 89.0526L18.3564 89.0518C18.5827 89.0184 18.8168 89 19.0548 89C21.3017 89 22.7039 90.5653 23.0861 91.0299C23.6552 91.7218 23.7915 92.6732 23.4396 93.4971C23.3209 93.7749 23.0975 94.2385 22.7386 94.7255C21.9638 95.7764 20.8619 96.5411 19.481 96.7471C19.2509 96.7817 19.0149 96.8 18.7773 96.8C16.5271 96.8 15.1274 95.2357 14.745 94.7699ZM19.1258 94.3736C19.7896 94.2748 20.355 93.9142 20.8064 93.3019C21.0215 93.01 21.1601 92.7239 21.2325 92.5544C20.9399 92.1986 20.1584 91.4 19.0548 91.4C18.9399 91.4 18.8229 91.4089 18.7066 91.4261C18.1108 91.5153 17.591 91.8176 17.1629 92.3242C16.8669 92.6748 16.6875 93.0402 16.6 93.247C16.8912 93.6018 17.6703 94.4 18.7773 94.4C18.8922 94.4 19.0095 94.3911 19.1258 94.3736Z" fill="white"/>
</g>
<path fill-rule="evenodd" clip-rule="evenodd" d="M73.0957 116.835C72.5334 116.954 72.115 117.113 71.8492 117.291C71.05 117.824 70.4444 118.393 70.0339 119.061C69.7757 119.481 69.5778 119.969 69.469 120.555C69.7893 120.57 70.1589 120.577 70.5534 120.565C71.8488 120.523 73.1671 120.275 73.9915 119.663C74.9796 118.93 75.6124 117.86 75.9552 116.939C75.9981 116.823 76.0354 116.713 76.0676 116.609C75.7192 116.603 75.3131 116.606 74.8549 116.627C74.2567 116.656 73.6446 116.718 73.0957 116.835ZM69.3749 122.953C69.7451 122.971 70.1721 122.978 70.6306 122.963C72.0353 122.918 73.9829 122.659 75.4219 121.591C76.8925 120.499 77.7553 118.983 78.2046 117.775C78.4302 117.169 78.5677 116.598 78.619 116.141C78.6432 115.926 78.6563 115.668 78.6184 115.421C78.6011 115.308 78.5587 115.094 78.4273 114.876C78.2825 114.635 77.9316 114.256 77.3429 114.256C77.3453 114.256 77.3466 114.256 77.3466 114.256C77.3466 114.256 77.3319 114.256 77.2902 114.254C77.2586 114.252 77.2222 114.25 77.1781 114.248C77.1568 114.247 77.1338 114.246 77.1086 114.245C76.9583 114.237 76.7569 114.228 76.5191 114.22C76.0446 114.205 75.419 114.198 74.7407 114.23C74.0659 114.262 73.316 114.335 72.5984 114.487C71.8943 114.636 71.142 114.878 70.5173 115.294C69.5359 115.949 68.6373 116.749 67.9887 117.805C67.5596 118.504 67.2581 119.285 67.1009 120.163C66.5478 119.727 65.8688 119.352 65.0496 119.156C63.4883 118.782 61.6307 118.692 61.0947 118.692C60.5927 118.692 60.2333 118.974 60.0448 119.251C59.8877 119.482 59.8387 119.712 59.8196 119.831C59.7786 120.084 59.798 120.339 59.8224 120.529C59.875 120.939 60.0058 121.437 60.1936 121.94C60.554 122.905 61.2432 124.205 62.3556 124.946C63.5028 125.711 65.0626 125.934 66.1615 126.005C66.4276 126.022 66.6807 126.031 66.9127 126.034C66.908 126.175 66.903 126.325 66.8978 126.481C66.874 127.192 66.8462 128.042 66.8204 128.869C66.0176 129.134 65.4559 129.642 65.0853 130.142C65.0261 130.221 64.9719 130.301 64.9224 130.378C64.862 130.363 64.7996 130.348 64.7351 130.334C63.9384 130.163 62.8296 130.141 61.6763 130.81C60.5441 131.468 59.9904 132.408 59.7308 133.174C59.6027 133.551 59.5448 133.888 59.5186 134.136C59.5055 134.261 59.5001 134.365 59.4982 134.444C59.4973 134.483 59.4972 134.517 59.4975 134.543C59.4977 134.556 59.4979 134.567 59.4982 134.577L59.4986 134.59L59.4988 134.596L59.4989 134.599L59.499 134.6C59.499 134.6 59.499 134.601 60.6979 134.549C61.8968 134.497 61.8968 134.497 61.8968 134.498L61.8969 134.499L61.897 134.501L61.8971 134.505L61.8973 134.511L61.8974 134.515C61.8974 134.516 61.8967 134.511 61.897 134.501C61.8974 134.481 61.8997 134.442 61.9054 134.388C61.9168 134.28 61.9435 134.122 62.0037 133.944C62.1204 133.6 62.3572 133.19 62.8814 132.886C63.3844 132.594 63.8462 132.598 64.2312 132.681C64.4301 132.723 64.6047 132.787 64.7541 132.848C64.7682 132.853 64.793 132.864 64.8218 132.875C64.8781 132.899 64.9496 132.928 64.9863 132.943C65.0204 132.956 65.0993 132.986 65.1912 133.009C65.2363 133.021 65.3267 133.042 65.4408 133.048C65.5296 133.053 65.7946 133.061 66.083 132.908C66.3318 132.776 66.4663 132.592 66.4999 132.546C66.552 132.475 66.5873 132.41 66.6044 132.378C66.6392 132.312 66.6665 132.248 66.6792 132.218C66.6956 132.18 66.707 132.152 66.7174 132.127C66.7325 132.09 66.7454 132.058 66.7685 132.006C66.8309 131.864 66.9087 131.712 67.0134 131.571C67.1919 131.33 67.4475 131.108 67.9429 131.082C68.5876 131.163 68.867 131.436 69.024 131.649C69.1204 131.78 69.1891 131.917 69.2536 132.061C69.258 132.071 69.264 132.085 69.2712 132.101C69.2971 132.16 69.3379 132.252 69.3692 132.315C69.3909 132.359 69.4388 132.453 69.5112 132.552L69.5132 132.555C69.5582 132.616 69.7719 132.909 70.1854 133.026C70.5093 133.117 70.7888 133.047 70.834 133.036C70.8359 133.035 70.8374 133.035 70.8385 133.034C70.9282 133.013 71.0066 132.985 71.0507 132.969C71.1125 132.947 71.196 132.913 71.2642 132.886C71.288 132.876 71.3099 132.868 71.3283 132.86C71.5099 132.789 71.711 132.715 71.9322 132.665C72.372 132.565 72.8 132.575 73.2016 132.833C73.6858 133.145 73.9349 133.573 74.0676 133.953C74.1342 134.143 74.1677 134.312 74.1841 134.429C74.1922 134.487 74.1959 134.529 74.1974 134.553C74.1982 134.564 74.1984 134.571 74.1985 134.572C74.1985 134.572 74.1984 134.571 74.1984 134.569L74.1983 134.564L74.1983 134.561L74.1983 134.559C74.1983 134.558 74.1982 134.557 75.3982 134.549C76.5982 134.541 76.5982 134.54 76.5982 134.54L76.5982 134.539L76.5982 134.537L76.5981 134.531L76.5979 134.519L76.597 134.487C76.5961 134.462 76.5946 134.43 76.592 134.392C76.587 134.316 76.5777 134.216 76.5607 134.095C76.527 133.855 76.4616 133.528 76.3333 133.161C76.0763 132.425 75.5516 131.491 74.4996 130.815C73.3649 130.085 72.2059 130.142 71.4015 130.324C71.2896 130.35 71.1828 130.378 71.0821 130.407C71.0433 130.348 71.0014 130.287 70.9564 130.226C70.5841 129.721 70.0286 129.227 69.2196 128.933C69.2452 128.112 69.2728 127.268 69.2964 126.561C69.3131 126.063 69.3277 125.633 69.3381 125.328L69.3548 124.842L69.3552 124.831L69.3749 123.643V122.953ZM66.8631 123.633C66.7587 123.427 66.611 123.169 66.4173 122.901C65.9614 122.27 65.3273 121.69 64.4908 121.49C63.837 121.333 63.0991 121.234 62.4699 121.174C62.7676 121.941 63.2158 122.635 63.6868 122.949C64.2733 123.34 65.2807 123.543 66.3155 123.61C66.5067 123.622 66.6908 123.629 66.8631 123.633Z" fill="white"/>
<g clip-path="url(#clip2)">
<path fill-rule="evenodd" clip-rule="evenodd" d="M37.8325 33.061C37.5399 33.1526 37.2373 33.2738 36.7498 33.4959C36.7204 33.5145 36.6905 33.5326 36.6601 33.5501C35.8974 33.9889 35.5249 34.8854 35.7519 35.7355C35.9789 36.5856 36.7488 37.177 37.6287 37.1772L37.6334 37.1772L49.5713 37.2032L49.5738 37.2032C51.2454 37.2018 52.6 35.8463 52.6 34.1745C52.6 32.5018 51.244 31.1458 49.5713 31.1458C49.527 31.1458 49.4827 31.1445 49.4385 31.1421C49.3516 31.1373 49.2644 31.1373 49.1775 31.1421C49.1269 31.1449 49.0765 31.1461 49.0264 31.1457C48.57 31.2057 48.282 31.2662 48.052 31.3368C47.731 31.4354 47.5182 31.5495 47.0528 31.799C46.9139 31.8735 46.7524 31.9601 46.5587 32.062C45.9722 32.3706 45.2466 32.1452 44.938 31.5587C44.6294 30.9722 44.8548 30.2466 45.4413 29.938C45.5692 29.8707 45.6923 29.8043 45.8126 29.7394L45.8127 29.7393C46.103 29.5827 46.3768 29.435 46.6629 29.3047C45.7258 27.4653 43.6701 26.448 41.6146 26.8544C39.7235 27.2283 38.2909 28.7165 37.9439 30.5544C38.1896 30.5003 38.4552 30.448 38.7582 30.3895C39.409 30.264 40.0383 30.6897 40.1638 31.3405C40.2894 31.9912 39.8636 32.6205 39.2129 32.7461C38.5362 32.8766 38.1759 32.9534 37.8325 33.061ZM35.4632 31.4699C35.3605 31.529 35.2609 31.5918 35.1646 31.6581C33.663 32.6918 32.9563 34.5691 33.4331 36.3547C33.9405 38.2548 35.6615 39.5768 37.6281 39.5772L49.5713 39.6032C52.5695 39.6032 55 37.1727 55 34.1745C55 31.8047 53.4815 29.7895 51.3645 29.0489C51.0384 28.9349 50.6982 28.851 50.3471 28.8008C50.0937 28.7645 49.8347 28.7458 49.5713 28.7458C49.3959 28.7361 49.2201 28.7361 49.0447 28.7458L49.0367 28.7264C47.7524 25.6177 44.4506 23.8473 41.1491 24.5C37.8407 25.1541 35.458 28.0584 35.4632 31.4309V31.4468V31.4699ZM38.7553 42.3711C39.059 41.845 38.8788 41.1722 38.3526 40.8685C37.8265 40.5647 37.1538 40.745 36.85 41.2711L35.2 44.129C34.8962 44.6551 35.0765 45.3278 35.6026 45.6316C36.1288 45.9354 36.8015 45.7551 37.1053 45.229L38.7553 42.3711ZM43.8526 40.8685C44.3788 41.1722 44.559 41.845 44.2553 42.3711L42.6053 45.229C42.3015 45.7551 41.6288 45.9354 41.1026 45.6316C40.5765 45.3278 40.3962 44.6551 40.7 44.129L42.35 41.2711C42.6538 40.745 43.3265 40.5647 43.8526 40.8685ZM49.7553 42.3711C50.059 41.845 49.8787 41.1722 49.3526 40.8685C48.8265 40.5647 48.1538 40.745 47.85 41.2711L46.2 44.129C45.8962 44.6551 46.0765 45.3278 46.6026 45.6316C47.1287 45.9354 47.8015 45.7551 48.1053 45.229L49.7553 42.3711Z" fill="white"/>
</g>
<defs>
<clipPath id="clip0">
<rect width="24" height="24" fill="white" transform="translate(91 31)"/>
</clipPath>
<clipPath id="clip1">
<rect width="24" height="24" fill="white" transform="translate(11 75)"/>
</clipPath>
<clipPath id="clip2">
<rect width="24" height="24" fill="white" transform="translate(32 23)"/>
</clipPath>
</defs>
</svg>
