<svg width="218" height="40" viewBox="0 0 218 40" fill="none" xmlns="http://www.w3.org/2000/svg">
<path d="M29.7886 4H2.16802C0.97561 4 0 4.97561 0 6.16802V33.832C0 35.0244 0.97561 36 2.16802 36H29.7886C30.981 36 31.9566 35.0244 31.9566 33.832V6.16802C31.9566 4.97561 30.981 4 29.7886 4ZM31.2412 33.832C31.2412 34.6125 30.5908 35.2412 29.832 35.2412H2.1897C1.40921 35.2412 0.780488 34.5908 0.780488 33.832V6.16802C0.780488 5.38753 1.43089 4.75881 2.1897 4.75881H29.8103C30.5908 4.75881 31.2195 5.40921 31.2195 6.16802L31.2412 33.832Z" fill="white"/>
<path d="M31.2412 33.832C31.2412 34.6125 30.5908 35.2412 29.832 35.2412H2.18969C1.4092 35.2412 0.780472 34.5908 0.780472 33.832V6.16804C0.780472 5.38755 1.43088 4.75882 2.18969 4.75882H29.8103C30.5908 4.75882 31.2195 5.40923 31.2195 6.16804L31.2412 33.832Z" fill="#00205B"/>
<path d="M19.664 30.2331C20.3578 29.9512 20.7046 29.4742 20.7046 28.6938C20.7046 28.6504 20.7046 28.607 20.7046 28.5637C20.6396 27.523 19.8158 27.0244 18.8401 27.0244H16.2168V32.271H17.4743V30.3848H18.3632L19.3388 32.271H20.748L19.664 30.2331ZM18.6233 29.4959H17.3876V27.9566H18.6233C19.1003 27.9566 19.3821 28.1734 19.3821 28.7154C19.4255 29.2358 19.1437 29.4959 18.6233 29.4959Z" fill="white"/>
<path d="M9.51764 27.0461H8.10843L7.21954 29.3442L6.24393 27.6531C6.04881 27.3496 5.59352 27.0677 5.20328 27.0677H4.48783L6.65585 30.8618L6.09217 32.336H6.85097C7.21954 32.336 7.63146 32.0542 7.76154 31.7073L9.51764 27.0461Z" fill="white"/>
<path d="M13.29 29.9946H11.5122L12.271 28.0217C12.3578 27.8049 12.4878 27.8049 12.5529 28.0217L13.29 29.9946ZM13.6152 30.9051L14.1572 32.3143H15.4797L13.7236 27.6965C13.5935 27.3496 13.1599 27.0677 12.813 27.0677H11.2737L9.30084 32.3143H9.95125C10.3198 32.3143 10.7317 32.0325 10.8618 31.6856L11.1437 30.9268H13.6152V30.9051Z" fill="white"/>
<path d="M24.0434 28.0433C24.1301 27.8265 24.2602 27.8265 24.3252 28.0433L25.084 30.0162H23.3063L24.0434 28.0433ZM22.9811 30.9051H25.4309L25.7128 31.6639C25.8428 32.0108 26.2548 32.2927 26.6233 32.2927H27.2737L25.2575 27.0461H23.7399C23.3713 27.0461 22.9594 27.3279 22.8293 27.6748L21.0732 32.2927H22.3957L22.9811 30.9051Z" fill="white"/>
<path d="M20.4661 17.2683C20.5311 17.3117 20.6829 17.3117 20.8347 17.3117C21.3984 17.3117 22.504 17.3117 23.1544 17.3117C21.9837 16.271 21.2683 13.6911 21.2683 12.1518C21.2683 10.5691 21.9837 8.01086 23.1544 6.99189C22.5257 6.99189 21.42 6.99189 20.8347 6.99189C20.7046 6.99189 20.5311 6.99189 20.4661 7.03525C20.4661 7.03525 18.3848 9.00815 18.3848 12.1518C18.3848 15.2954 20.4661 17.2683 20.4661 17.2683Z" fill="white"/>
<path d="M15.458 17.2683C15.523 17.3117 15.6748 17.3117 15.8265 17.3117C16.3902 17.3117 17.4959 17.3117 18.1246 17.3117C16.9539 16.271 16.2385 13.6911 16.2385 12.1518C16.2385 10.5691 16.9973 8.01086 18.1246 6.99189C17.4959 6.99189 16.3902 6.99189 15.8265 6.99189C15.6965 6.99189 15.523 6.99189 15.458 7.03525C15.458 7.03525 13.3767 9.05151 13.3767 12.1518C13.42 15.2521 15.458 17.2683 15.458 17.2683Z" fill="white"/>
<path d="M10.4932 17.2683C10.5582 17.3117 10.71 17.3117 10.8401 17.3117C11.4254 17.3117 12.5311 17.3117 13.1599 17.3117C11.9891 16.271 11.2737 13.6911 11.2737 12.1518C11.2737 10.5691 11.9891 8.01086 13.1599 6.99189C12.5311 6.99189 11.4254 6.99189 10.8401 6.99189C10.71 6.99189 10.5366 6.99189 10.4932 7.03525C10.4932 7.03525 8.4119 9.00815 8.4119 12.1518C8.4119 15.2954 10.4932 17.2683 10.4932 17.2683Z" fill="white"/>
<path d="M26.7967 21.3876C26.4498 20.6721 25.8211 19.4364 25.7344 19.0244C25.7344 19.0244 25.3658 18.0922 26.3631 17.9187C26.775 17.8537 27.0569 17.5502 27.0786 17.1599V16.683C27.0786 16.6179 27.0135 16.5529 26.9485 16.5529H25.3225C25.2791 16.5529 24.1517 16.683 24.1517 18.0705C24.1084 20.4336 24.1517 20.7155 23.523 20.8456C23.458 20.8456 23.4363 20.7805 23.4363 20.7588C23.4363 20.7155 23.4363 20.7155 23.4363 20.6938C23.4363 19.4364 22.439 18.4174 21.1599 18.4174C20.5311 18.4174 19.9241 18.6992 19.5555 19.1111C19.5555 19.1545 19.4905 19.1762 19.4688 19.1762C19.4254 19.1762 19.3821 19.1328 19.3821 19.1111C18.9702 18.6992 18.4065 18.4174 17.7778 18.4174C17.149 18.4174 16.542 18.6992 16.1734 19.1111C16.1734 19.1545 16.1084 19.1762 16.0867 19.1762C16.0433 19.1762 16 19.1328 16 19.1111C15.588 18.6992 15.0244 18.4174 14.3956 18.4174C13.7669 18.4174 13.1599 18.6992 12.7913 19.1111C12.7913 19.1545 12.7263 19.1762 12.7046 19.1762C12.6612 19.1762 12.6179 19.1328 12.6179 19.1111C12.2059 18.6992 11.6422 18.4174 11.0135 18.4174C9.75607 18.4174 8.7371 19.4147 8.7371 20.6938C8.7371 20.7372 8.7371 20.7372 8.7371 20.7588C8.7371 20.8239 8.67206 20.8456 8.60702 20.8456C7.97829 20.7588 8.02165 20.4336 7.97829 18.0705C7.97829 16.683 6.85092 16.5529 6.80756 16.5529H5.1165C5.05146 16.5529 4.98642 16.6179 4.98642 16.683V17.1599C5.02978 17.5719 5.26827 17.8754 5.70187 17.9187C6.69916 18.0705 6.3306 19.0244 6.3306 19.0244C6.24388 19.4364 5.61515 20.6504 5.26827 21.3876C5.05146 21.8645 4.5745 22.9919 5.31163 24.1193C5.72355 24.7697 6.22219 25.3551 7.97829 25.3551H24.2385C25.9946 25.3984 26.5149 24.7914 26.9051 24.1193C27.4688 23.0136 27.0352 21.8429 26.7967 21.3876ZM10.8401 22.0163C10.0813 22.0163 9.49591 21.4309 9.49591 20.6721C9.49591 19.9133 10.0813 19.328 10.8401 19.328C11.5989 19.328 12.1843 19.9133 12.1843 20.6721C12.2059 21.4093 11.5555 22.0163 10.8401 22.0163ZM14.2656 22.0163C13.5067 22.0163 12.9214 21.4309 12.9214 20.6721C12.9214 19.9133 13.5067 19.328 14.2656 19.328C15.0244 19.328 15.6097 19.9133 15.6097 20.6721C15.6097 21.4093 15.0244 22.0163 14.2656 22.0163ZM17.691 22.0163C16.9322 22.0163 16.3469 21.4309 16.3469 20.6721C16.3469 19.9133 16.9322 19.328 17.691 19.328C18.4498 19.328 19.0352 19.9133 19.0352 20.6721C19.0352 21.4093 18.4498 22.0163 17.691 22.0163ZM21.1382 22.0163C20.3794 22.0163 19.794 21.4309 19.794 20.6721C19.794 19.9133 20.3794 19.328 21.1382 19.328C21.897 19.328 22.4824 19.9133 22.4824 20.6721C22.504 21.4093 21.897 22.0163 21.1382 22.0163Z" fill="white"/>
<path d="M59.0726 10.784C59.0726 10.616 58.9606 10.448 58.7366 10.392C58.2046 10.252 56.9726 9.944 55.2366 9.944C52.2406 9.944 50.8406 11.26 50.8406 14.088V16.3H48.6566C48.4046 16.3 48.2366 16.468 48.2366 16.72V18.26C48.2366 18.512 48.4046 18.68 48.6566 18.68H50.8406V30.58C50.8406 30.832 51.0086 31 51.2886 31H53.5846C53.8366 31 54.0046 30.832 54.0046 30.58V18.68H57.8966C58.1486 18.68 58.3166 18.512 58.3166 18.26V16.72C58.3166 16.468 58.1486 16.3 57.8966 16.3H54.0046V14.032C54.0046 13.36 54.1726 12.912 54.5086 12.66C54.8446 12.38 55.3766 12.296 56.0766 12.296C57.0006 12.296 57.9806 12.492 58.4566 12.576H58.5406C58.7366 12.576 58.8206 12.464 58.8766 12.24L59.0726 10.84V10.784Z" fill="#00205B"/>
<path d="M72.7047 28.06V20.304C72.7047 18.82 72.5647 17.504 71.1087 16.692C70.2407 16.216 68.9247 15.936 66.9367 15.936C64.1927 15.936 61.7007 16.58 60.9167 16.86C60.7767 16.916 60.6087 17 60.6087 17.252V17.336L60.9447 18.904C60.9727 19.072 61.1127 19.128 61.2247 19.128C61.3087 19.128 61.3647 19.1 61.4207 19.1C62.3727 18.876 64.3607 18.316 66.3767 18.316C67.4687 18.316 68.1967 18.4 68.6727 18.596C69.4847 18.932 69.5407 19.548 69.5407 20.388V21.424L64.4447 22.264C61.9807 22.684 59.7967 22.992 59.7967 26.66C59.7967 31.14 63.6327 31.364 66.4327 31.364C67.9727 31.364 69.2887 31.196 70.2127 30.972C72.1447 30.524 72.7047 30.104 72.7047 28.06ZM69.5407 28.732C68.7287 29.012 67.6647 29.18 66.5167 29.18C65.0047 29.18 63.0447 29.012 63.0447 26.604C63.0447 24.616 64.2207 24.504 65.4247 24.308L69.5407 23.636V28.732Z" fill="#00205B"/>
<path d="M84.2521 18.036V16.44C84.2521 16.132 84.0561 16.048 83.9441 16.02C83.6921 15.964 83.7481 15.964 83.3001 15.964H82.8241C81.3121 15.992 79.2961 16.3 78.0921 16.748C76.8881 17.168 76.3841 17.504 76.3841 18.652V30.58C76.3841 30.832 76.7481 31 76.8321 31H79.1561C79.4081 31 79.5761 30.832 79.5761 30.58V18.904C80.6401 18.624 82.1241 18.456 83.8601 18.456C84.1961 18.456 84.2521 18.26 84.2521 18.036Z" fill="#00205B"/>
<path d="M108.959 30.58V20.108C108.959 16.888 107.195 15.936 103.779 15.936C101.707 15.936 98.9352 16.524 97.8432 16.944C97.0592 16.3 95.8272 15.936 94.0632 15.936C92.2712 15.936 89.7232 16.3 88.2952 16.72C86.7832 17.196 86.4192 17.588 86.4192 18.68V30.58C86.4192 30.832 86.6152 31 86.8672 31H89.1912C89.4432 31 89.6112 30.832 89.6112 30.58V18.82C89.6112 18.82 91.7672 18.232 93.8112 18.232C95.4632 18.232 96.1352 18.792 96.1352 20.528V30.58C96.1352 30.832 96.3032 31 96.5552 31H98.8792C99.1312 31 99.2992 30.832 99.2992 30.58V18.82C99.2992 18.82 101.399 18.232 103.443 18.232C105.095 18.232 105.795 18.792 105.795 20.528V30.58C105.795 30.832 105.963 31 106.243 31H108.539C108.819 31 108.959 30.832 108.959 30.58Z" fill="#00205B"/>
<path d="M123.444 10.924V10.84C123.444 10.672 123.388 10.476 123.136 10.42C122.716 10.308 121.428 9.944 119.384 9.944C116.136 9.944 114.596 11.428 114.596 14.396V16.3H112.44C112.188 16.3 111.992 16.468 111.992 16.72V18.96C111.992 19.212 112.188 19.38 112.44 19.38H114.596V30.58C114.596 30.832 114.82 31 115.072 31H118.488C118.768 31 118.936 30.832 118.936 30.58V19.38H122.492C122.744 19.38 122.94 19.212 122.94 18.96V16.72C122.94 16.468 122.744 16.3 122.492 16.3H118.936V14.508C118.936 13.92 119.048 13.556 119.328 13.304C119.608 13.08 120.056 12.996 120.728 12.996C121.484 12.996 122.352 13.136 122.716 13.192H122.828C123.052 13.192 123.108 13.08 123.136 12.828L123.444 10.924Z" fill="#8E8277"/>
<path d="M138.369 23.664C138.369 19.324 137.557 15.936 131.257 15.936C124.929 15.936 124.145 19.324 124.145 23.664C124.145 27.976 124.929 31.364 131.257 31.364C137.557 31.364 138.369 27.976 138.369 23.664ZM133.973 23.664C133.973 26.94 133.833 28.452 131.257 28.452C128.653 28.452 128.541 26.94 128.541 23.664C128.541 20.36 128.653 18.848 131.257 18.848C133.833 18.848 133.973 20.36 133.973 23.664Z" fill="#8E8277"/>
<path d="M149.481 18.596V16.552C149.481 16.3 149.369 16.16 149.285 16.104C149.117 15.992 149.033 15.964 148.725 15.964H148.473C147.549 15.992 146.541 16.132 145.757 16.244C144.553 16.412 143.209 16.58 142.369 16.888C141.501 17.224 141.109 17.532 141.109 18.344V30.58C141.109 30.832 141.361 31 141.557 31H144.973C145.253 31 145.421 30.832 145.421 30.58V19.464C145.897 19.352 147.353 19.156 148.977 19.156C149.453 19.156 149.481 18.904 149.481 18.596Z" fill="#8E8277"/>
<path d="M174.145 17V16.832C174.145 16.524 173.949 16.3 173.613 16.3H170.561C170.225 16.3 170.001 16.384 169.945 16.776L168.209 28.312H167.453L165.577 17.504C165.521 17.224 165.325 17.056 165.045 17.056H159.753C159.473 17.056 159.277 17.224 159.221 17.504L157.401 28.312H156.645L154.741 16.776C154.657 16.384 154.461 16.3 154.097 16.3H150.877C150.541 16.3 150.373 16.524 150.373 16.832V17L153.369 30.552C153.425 30.804 153.593 31 153.873 31H159.753C160.033 31 160.229 30.804 160.257 30.552L162.273 20.22H162.301L164.233 30.552C164.289 30.804 164.485 31 164.765 31H170.645C170.925 31 171.093 30.804 171.149 30.552L174.145 17Z" fill="#8E8277"/>
<path d="M189.302 28.06V20.36C189.302 18.792 188.91 17.504 187.51 16.748C186.586 16.216 185.214 15.936 183.254 15.936C180.258 15.936 177.626 16.692 177.01 16.944C176.87 17 176.674 17.112 176.674 17.364C176.674 17.42 176.674 17.448 176.702 17.504L177.122 19.436C177.15 19.604 177.262 19.688 177.43 19.688C177.486 19.688 177.57 19.66 177.626 19.632C178.382 19.464 180.51 18.876 182.33 18.876C183.254 18.876 183.926 18.96 184.318 19.156C184.906 19.436 184.99 19.912 184.99 20.668V21.424L180.118 22.208C178.074 22.516 175.778 22.992 175.778 26.576C175.778 30.972 179.362 31.364 182.61 31.364C184.234 31.364 185.55 31.224 186.586 30.972C188.518 30.552 189.302 30.188 189.302 28.06ZM185.018 28.34C184.654 28.452 183.758 28.648 182.722 28.648C181.602 28.648 180.034 28.48 180.034 26.52C180.034 24.84 180.958 24.644 182.022 24.476L185.018 24V28.34Z" fill="#8E8277"/>
<path d="M200.977 18.596V16.552C200.977 16.3 200.865 16.16 200.781 16.104C200.613 15.992 200.529 15.964 200.221 15.964H199.969C199.045 15.992 198.037 16.132 197.253 16.244C196.049 16.412 194.705 16.58 193.865 16.888C192.997 17.224 192.605 17.532 192.605 18.344V30.58C192.605 30.832 192.857 31 193.053 31H196.469C196.749 31 196.917 30.832 196.917 30.58V19.464C197.393 19.352 198.849 19.156 200.473 19.156C200.949 19.156 200.977 18.904 200.977 18.596Z" fill="#8E8277"/>
<path d="M216.121 28.536V10.42C216.121 10.084 215.925 9.944 215.645 9.944H215.477L212.313 10.476C211.921 10.532 211.781 10.756 211.781 11.148V14.732L212.089 16.44C211.781 16.384 210.269 15.936 208.309 15.936C203.409 15.936 202.261 18.932 202.261 23.776C202.261 29.628 204.165 31.364 209.653 31.364C211.389 31.364 213.125 31.112 214.469 30.72C216.037 30.272 216.121 29.292 216.121 28.536ZM211.781 28.172C211.781 28.172 210.773 28.452 209.681 28.452C207.497 28.452 206.629 28.004 206.629 23.524C206.629 19.268 207.385 18.848 209.513 18.848C210.549 18.848 211.781 19.1 211.781 19.1V28.172Z" fill="#8E8277"/>
</svg>
